# xmcd
#
# Track frame offsets:
#	150
#	13675
#	26740
#	39667
#	54577
#	70715
#	85180
#	99992
#	118487
#	130232
#	145655
#	159822
#	171110
#	183675
#	205055
#
# Disc length: 2937 seconds
#
# Revision: 1
# Processed by: cddbd v1.5.1PL0 Copyright (c) Steve Scherf et al.
# Submitted via: audiograbber 1.82.02
#
DISCID=ca0b770f
DTITLE=Various Artist - Solid Gold Soul 1969-1970 CD1
DYEAR=1969
DGENRE=Soul
TTITLE0=Jackson Five - I Want You Back
TTITLE1=Marvin Gaye - Too Busy Thinking About My Baby
TTITLE2=James Brown - Get Up (I Feel Like Being A Sex Machine)
TTITLE3=Booker T. and The M.G.'s - Time Is Tight
TTITLE4=Diana Ross - Ain't No Mountain High Enough
TTITLE5=Clarence Carter - Patches
TTITLE6=Rufus Thomas - Do The Funky Chicken
TTITLE7=Wilson Pickett - Hey Jude
TTITLE8=Jerry Butler - Only The Strong Survive
TTITLE9=Dells - I Can Sing A Rainbow - Love Is Blue
TTITLE10=The Temptations&The Supremes - I'm Gonna Make You Love Me
TTITLE11=Sam and Dave - Soul Sister, Brown Sugar
TTITLE12=Isley Brothers - Behind A Painted Smile
TTITLE13=Fifth Dimension - Aquarius - Let The Sun Shine In
TTITLE14=Edwin Starr - War
EXTD=
EXTT0=
EXTT1=
EXTT2=
EXTT3=
EXTT4=
EXTT5=
EXTT6=
EXTT7=
EXTT8=
EXTT9=
EXTT10=
EXTT11=
EXTT12=
EXTT13=
EXTT14=
PLAYORDER=
